<svg version="1.1" id="Layer_1" xmlns="http://www.w3.org/2000/svg" xmlns:xlink="http://www.w3.org/1999/xlink" x="0px" y="0px"
	 width="100%" viewBox="0 0 220 220" enable-background="new 0 0 220 220" xml:space="preserve">
<path fill="#151515" opacity="1.000000" stroke="none" 
	d="
M149.000000,221.000000 
	C99.333336,221.000000 50.166672,221.000000 1.000007,221.000000 
	C1.000004,147.666672 1.000004,74.333351 1.000002,1.000016 
	C74.333321,1.000011 147.666641,1.000011 220.999969,1.000005 
	C220.999985,74.333321 220.999985,147.666641 221.000000,220.999969 
	C197.166672,221.000000 173.333328,221.000000 149.000000,221.000000 
M78.724953,100.186821 
	C76.264839,103.186195 73.804718,106.185570 71.192780,108.220924 
	C71.192780,98.825523 71.192780,89.430115 71.192780,80.146393 
	C63.659859,80.146393 56.920521,80.146393 50.029705,80.146393 
	C50.029705,99.541084 50.029705,118.625710 49.596710,138.256958 
	C46.062412,143.004578 42.528114,147.752182 38.993816,152.499786 
	C39.228058,152.690643 39.462303,152.881485 39.696548,153.072342 
	C54.911674,138.537155 70.126801,124.001991 86.234932,108.613716 
	C100.075836,123.221672 113.552826,137.445557 127.258659,151.910965 
	C146.535583,133.861816 164.822571,116.739578 183.185165,99.546516 
	C184.799789,100.892464 186.148117,102.016434 187.931305,103.502899 
	C190.248718,95.545486 192.441071,88.017509 194.884430,79.627640 
	C185.995483,81.836105 178.219559,83.768036 169.956360,85.821037 
	C171.487183,87.676949 172.519302,88.928230 173.884964,90.583900 
	C168.951859,95.100258 164.074280,99.565765 159.168396,103.084129 
	C159.168396,78.827583 159.168396,54.571045 159.168396,30.251083 
	C151.769547,30.251083 145.013718,30.251083 137.997574,30.251083 
	C137.997574,61.615524 137.997574,92.732697 137.553894,124.356026 
	C135.087891,126.616394 132.621872,128.876770 130.022400,130.183548 
	C130.022400,102.766418 130.022400,75.349281 130.022400,47.976906 
	C122.432892,47.976906 115.409233,47.976906 107.941818,47.976906 
	C107.941818,69.923584 107.941818,91.390343 107.340324,112.602707 
	C104.954437,110.090622 102.568542,107.578545 100.423752,104.258049 
	C100.423752,90.336685 100.423752,76.415321 100.423752,62.391502 
	C93.127563,62.391502 86.118454,62.391502 79.155502,62.391502 
	C79.155502,75.058769 79.155502,87.336388 78.724953,100.186821 
M187.644562,140.213089 
	C188.615173,134.068542 189.585770,127.924004 190.603210,121.482986 
	C185.380707,121.482986 181.317047,121.482986 177.345490,121.482986 
	C174.603241,154.303314 157.990234,176.340012 126.677238,185.398056 
	C100.321945,193.021942 76.678581,186.322067 58.044319,168.611191 
	C67.064827,158.293900 75.794281,148.309494 85.930893,136.715637 
	C100.630196,152.266357 114.187164,166.608551 127.927002,181.144226 
	C142.023422,162.500977 155.581772,144.569351 169.140121,126.637726 
	C168.813065,126.355103 168.486023,126.072472 168.158966,125.789848 
	C154.871979,138.196045 141.584991,150.602249 127.822586,163.452362 
	C113.496994,149.099625 99.639214,135.215576 85.551300,121.100952 
	C69.961029,136.077850 54.408092,151.018890 38.590675,166.214005 
	C60.659554,193.665039 88.723434,205.653793 122.639954,199.405106 
	C155.463272,193.357849 177.622742,173.534225 187.644562,140.213089 
z"/>
<path fill="#51B2F6" opacity="1.000000" stroke="none" 
	d="
M187.564850,140.615173 
	C177.622742,173.534225 155.463272,193.357849 122.639954,199.405106 
	C88.723434,205.653793 60.659554,193.665039 38.590675,166.214005 
	C54.408092,151.018890 69.961029,136.077850 85.551300,121.100952 
	C99.639214,135.215576 113.496994,149.099625 127.822586,163.452362 
	C141.584991,150.602249 154.871979,138.196045 168.158966,125.789848 
	C168.486023,126.072472 168.813065,126.355103 169.140121,126.637726 
	C155.581772,144.569351 142.023422,162.500977 127.927002,181.144226 
	C114.187164,166.608551 100.630196,152.266357 85.930893,136.715637 
	C75.794281,148.309494 67.064827,158.293900 58.044319,168.611191 
	C76.678581,186.322067 100.321945,193.021942 126.677238,185.398056 
	C157.990234,176.340012 174.603241,154.303314 177.345490,121.482986 
	C181.317047,121.482986 185.380707,121.482986 190.603210,121.482986 
	C189.585770,127.924004 188.615173,134.068542 187.564850,140.615173 
z"/>
<path fill="#7BF75A" opacity="1.000000" stroke="none" 
	d="
M71.344597,109.184944 
	C73.804718,106.185570 76.264839,103.186195 79.173599,99.714325 
	C81.604408,96.736267 83.586571,94.230705 85.785919,91.450623 
	C90.926880,96.312729 95.554764,100.689598 100.182655,105.066460 
	C102.568542,107.578545 104.954437,110.090622 107.811584,113.025742 
	C114.149902,119.301025 120.017021,125.153198 125.883934,131.005585 
	C127.267097,132.385315 128.651138,133.714951 130.155869,131.137131 
	C132.621872,128.876770 135.087891,126.616394 138.070526,123.967010 
	C145.457001,117.062424 152.326843,110.546852 159.196701,104.031281 
	C164.074280,99.565765 168.951859,95.100258 173.884964,90.583900 
	C172.519302,88.928230 171.487183,87.676949 169.956360,85.821037 
	C178.219559,83.768036 185.995483,81.836105 194.884430,79.627640 
	C192.441071,88.017509 190.248718,95.545486 187.931305,103.502899 
	C186.148117,102.016434 184.799789,100.892464 183.185165,99.546516 
	C164.822571,116.739578 146.535583,133.861816 127.258659,151.910965 
	C113.552826,137.445557 100.075836,123.221672 86.234932,108.613716 
	C70.126801,124.001991 54.911674,138.537155 39.696548,153.072342 
	C39.462303,152.881485 39.228058,152.690643 38.993816,152.499786 
	C42.528114,147.752182 46.062412,143.004578 50.051910,137.784241 
	C51.078674,136.507950 51.635990,135.693756 52.223984,134.902374 
	C58.594746,126.327843 64.970329,117.756882 71.344597,109.184944 
z"/>
<path fill="#F7D070" opacity="1.000000" stroke="none" 
	d="
M159.182556,103.557709 
	C152.326843,110.546852 145.457001,117.062424 138.292358,123.713936 
	C137.997574,92.732697 137.997574,61.615524 137.997574,30.251083 
	C145.013718,30.251083 151.769547,30.251083 159.168396,30.251083 
	C159.168396,54.571045 159.168396,78.827583 159.182556,103.557709 
z"/>
<path fill="#F4CE70" opacity="1.000000" stroke="none" 
	d="
M130.089142,130.660339 
	C128.651138,133.714951 127.267097,132.385315 125.883934,131.005585 
	C120.017021,125.153198 114.149902,119.301025 108.112335,113.152946 
	C107.941818,91.390343 107.941818,69.923584 107.941818,47.976906 
	C115.409233,47.976906 122.432892,47.976906 130.022400,47.976906 
	C130.022400,75.349281 130.022400,102.766418 130.089142,130.660339 
z"/>
<path fill="#F6D070" opacity="1.000000" stroke="none" 
	d="
M71.268692,108.702934 
	C64.970329,117.756882 58.594746,126.327843 52.223984,134.902374 
	C51.635990,135.693756 51.078674,136.507950 50.268410,137.510925 
	C50.029705,118.625710 50.029705,99.541084 50.029705,80.146393 
	C56.920521,80.146393 63.659859,80.146393 71.192780,80.146393 
	C71.192780,89.430115 71.192780,98.825523 71.268692,108.702934 
z"/>
<path fill="#F6D070" opacity="1.000000" stroke="none" 
	d="
M100.303207,104.662254 
	C95.554764,100.689598 90.926880,96.312729 85.785919,91.450623 
	C83.586571,94.230705 81.604408,96.736267 79.388870,99.427917 
	C79.155502,87.336388 79.155502,75.058769 79.155502,62.391502 
	C86.118454,62.391502 93.127563,62.391502 100.423752,62.391502 
	C100.423752,76.415321 100.423752,90.336685 100.303207,104.662254 
z"/>
</svg>